<svg xmlns="http://www.w3.org/2000/svg" viewBox="0 0 512 512">
  <defs>
    <linearGradient id="g" x1="0%" y1="0%" x2="100%" y2="100%">
      <stop offset="0%" stop-color="#06d6a0"/>
      <stop offset="100%" stop-color="#118ab2"/>
    </linearGradient>
  </defs>
  <rect width="512" height="512" rx="96" fill="#0a0a0f"/>
  <!-- Spider body -->
  <circle cx="256" cy="230" r="55" fill="url(#g)"/>
  <circle cx="256" cy="290" r="70" fill="url(#g)"/>
  <!-- Eyes -->
  <circle cx="240" cy="220" r="10" fill="#0a0a0f"/>
  <circle cx="272" cy="220" r="10" fill="#0a0a0f"/>
  <circle cx="242" cy="218" r="4" fill="#fff"/>
  <circle cx="274" cy="218" r="4" fill="#fff"/>
  <!-- Legs left -->
  <path d="M200 250 Q140 200 100 170" stroke="url(#g)" stroke-width="10" fill="none" stroke-linecap="round"/>
  <path d="M195 270 Q130 250 80 240" stroke="url(#g)" stroke-width="10" fill="none" stroke-linecap="round"/>
  <path d="M195 300 Q130 320 80 340" stroke="url(#g)" stroke-width="10" fill="none" stroke-linecap="round"/>
  <path d="M200 325 Q150 370 110 400" stroke="url(#g)" stroke-width="10" fill="none" stroke-linecap="round"/>
  <!-- Legs right -->
  <path d="M312 250 Q372 200 412 170" stroke="url(#g)" stroke-width="10" fill="none" stroke-linecap="round"/>
  <path d="M317 270 Q382 250 432 240" stroke="url(#g)" stroke-width="10" fill="none" stroke-linecap="round"/>
  <path d="M317 300 Q382 320 432 340" stroke="url(#g)" stroke-width="10" fill="none" stroke-linecap="round"/>
  <path d="M312 325 Q362 370 402 400" stroke="url(#g)" stroke-width="10" fill="none" stroke-linecap="round"/>
</svg>
